<svg version="1.1" id="Layer_1" xmlns="http://www.w3.org/2000/svg" xmlns:xlink="http://www.w3.org/1999/xlink" x="0px" y="0px"
	 width="100%" viewBox="0 0 500 500" enable-background="new 0 0 500 500" xml:space="preserve">
<path fill="#000000" opacity="1.000000" stroke="none" 
	d="
M277.000000,501.000000 
	C184.666687,501.000000 92.833374,501.000000 1.000049,501.000000 
	C1.000033,334.333405 1.000033,167.666794 1.000016,1.000139 
	C167.666565,1.000093 334.333130,1.000093 500.999756,1.000046 
	C500.999847,167.666519 500.999847,334.333038 500.999939,500.999786 
	C426.500000,501.000000 352.000000,501.000000 277.000000,501.000000 
M92.867592,178.256271 
	C92.867592,178.256271 92.568108,178.627151 92.351234,179.178909 
	C92.449394,179.391983 92.547562,179.605042 92.645721,179.818115 
	C92.648499,179.455261 92.651276,179.092392 93.613129,178.615707 
	C93.884697,179.505341 94.156265,180.394989 94.139946,182.098160 
	C94.074005,182.378159 94.008072,182.658157 93.424828,183.304352 
	C93.334015,183.982864 93.243202,184.661362 93.152390,185.339874 
	C93.397751,185.364960 93.643112,185.390060 93.888474,185.415161 
	C93.946327,184.631149 94.004181,183.847122 94.437248,183.025497 
	C94.437248,183.025497 94.815758,183.019608 95.048035,183.797455 
	C96.362167,191.657959 97.356178,199.590912 99.112022,207.351471 
	C100.144333,211.914169 97.825706,217.125992 101.257698,221.508545 
	C101.520981,222.677521 101.784264,223.846512 101.985886,225.886795 
	C101.988556,227.924484 101.991219,229.962189 101.378456,232.094742 
	C101.093781,232.532822 100.809097,232.970901 100.524414,233.408981 
	C101.094734,233.592834 101.665047,233.776703 102.655655,234.618546 
	C103.392418,242.159103 105.984352,248.931824 111.457764,254.634109 
	C110.763779,250.790512 110.069786,246.946915 110.469925,242.950882 
	C110.832832,242.888489 111.195747,242.826111 111.879509,243.463837 
	C113.099525,249.610779 114.319550,255.757721 114.840210,261.910034 
	C113.989166,261.860352 113.138123,261.810638 112.287079,261.760956 
	C112.179565,262.104095 112.072044,262.447266 111.964531,262.790436 
	C113.254654,263.311371 114.544777,263.832306 116.046043,265.098724 
	C116.035385,266.539398 116.024727,267.980042 115.622482,269.889496 
	C115.544579,270.289673 115.466667,270.689850 115.388756,271.090057 
	C115.568695,271.115631 115.748627,271.141205 115.928558,271.166809 
	C115.957130,270.588013 115.985695,270.009247 116.829575,269.531586 
	C119.871689,282.889587 122.805916,296.273346 125.984360,309.598846 
	C129.617905,324.832275 134.430161,339.775360 142.922989,352.974365 
	C150.439987,364.656769 158.553040,376.132721 167.740662,386.516144 
	C178.097397,398.220947 192.463394,403.800537 207.167496,408.709930 
	C233.872406,417.626068 260.716614,419.864899 288.146332,412.997894 
	C311.848816,407.063965 333.807800,398.542847 349.656464,378.172516 
	C365.071533,358.359558 377.032288,336.967590 383.143890,312.660278 
	C387.672516,294.649109 391.268860,276.389404 394.821167,258.150970 
	C398.245972,240.566956 402.338806,222.978271 403.895599,205.195328 
	C406.545532,174.925613 404.246857,144.794174 395.875275,114.803886 
	C395.638947,114.536247 395.402588,114.268616 394.821991,113.360428 
	C387.876312,95.040314 375.912048,80.306686 361.481781,67.483055 
	C345.076538,52.904354 325.670959,43.663971 305.000916,36.218384 
	C304.838501,35.806416 304.676056,35.394444 304.513641,34.982475 
	C304.301300,35.492813 304.088989,36.003151 303.109558,36.235256 
	C290.398956,34.532940 277.688354,32.830627 264.503082,31.007473 
	C264.503082,31.007473 264.024261,31.110567 263.102234,30.909092 
	C257.963440,30.878164 252.814438,30.626669 247.688065,30.863960 
	C238.128098,31.306480 228.581284,32.033211 219.438965,32.348354 
	C219.285034,32.435562 219.131104,32.522766 218.799469,33.291611 
	C199.449387,36.679466 181.815231,44.552597 165.263611,54.735649 
	C147.187836,65.856415 133.098648,81.167931 120.925247,98.971756 
	C116.842842,98.899246 118.100052,101.108284 118.988441,103.908936 
	C115.969643,112.973343 111.843735,121.834564 110.135941,131.139587 
	C104.619209,161.197739 103.381104,191.518555 106.432938,221.975357 
	C105.598976,221.975571 104.765007,221.975784 104.013794,221.213699 
	C103.674637,213.603897 103.340401,205.993866 102.995255,198.384338 
	C102.372803,184.660858 101.929153,170.925232 101.008675,157.221680 
	C100.719093,152.910507 99.142410,148.685776 98.137856,144.348221 
	C88.612701,147.058365 87.055397,149.488937 88.253372,158.476883 
	C88.355499,159.243103 87.899742,160.083679 87.150620,160.540421 
	C86.944626,160.798462 86.738632,161.056503 86.532631,161.314545 
	C86.925392,161.247910 87.318153,161.181274 88.542641,161.161636 
	C89.959770,166.681717 91.376900,172.201797 92.155800,177.473328 
	C91.948250,177.744492 91.740700,178.015656 91.533142,178.286819 
	C91.912827,178.131699 92.292511,177.976593 92.867592,178.256271 
M110.083412,259.421814 
	C110.206779,259.449219 110.330147,259.476624 110.453522,259.503998 
	C110.361282,259.286469 110.269035,259.068909 110.113319,258.336792 
	C109.846275,258.143311 109.579231,257.949829 109.312187,257.756348 
	C109.497963,258.224030 109.683746,258.691742 110.083412,259.421814 
M223.646698,419.658600 
	C224.067093,420.560608 224.405396,421.512695 224.920471,422.356934 
	C230.609940,431.682617 236.065125,441.169495 242.200943,450.193054 
	C243.968262,452.792175 247.491699,454.989532 250.601410,455.732269 
	C259.329163,457.816925 265.585175,454.314667 270.083862,446.490692 
	C273.710114,440.183990 277.894897,434.200592 281.610504,427.942352 
	C283.803619,424.248444 285.565887,420.298706 287.864105,415.793121 
	C279.810822,416.979645 273.145447,418.332672 266.414734,418.874756 
	C253.096985,419.947296 239.819733,419.500275 226.758026,416.225342 
	C224.516663,415.663330 222.585861,415.730072 223.646698,419.658600 
M406.985535,237.286118 
	C407.686005,229.845947 408.048737,222.355118 409.155396,214.975861 
	C411.661926,198.262024 413.573364,181.418686 419.719666,165.438187 
	C421.179138,161.643463 421.709076,157.363968 421.955048,153.264740 
	C422.212158,148.980438 418.119019,144.899841 414.139282,145.190598 
	C410.198090,145.478561 409.074280,148.652969 408.909363,151.962112 
	C408.189209,166.411331 407.808624,180.879745 406.919678,195.317474 
	C406.318481,205.081207 405.440552,214.858948 404.021637,224.532898 
	C402.492859,234.955811 400.188568,245.264984 398.044220,256.563873 
	C403.516571,250.909134 405.052704,244.454407 406.985535,237.286118 
M258.461761,27.014456 
	C253.116806,27.014456 247.771851,27.014456 242.426895,27.014456 
	C242.435776,27.246626 242.444656,27.478794 242.453537,27.710964 
	C251.073654,27.710964 259.693787,27.710964 268.313904,27.710964 
	C268.314636,27.472649 268.315369,27.234333 268.316101,26.996017 
	C265.358398,26.996017 262.400665,26.996017 258.461761,27.014456 
M103.989059,155.063736 
	C104.104088,155.349991 104.206825,155.642502 104.346527,155.916153 
	C104.369110,155.960388 104.652405,155.928787 104.653244,155.918732 
	C104.732742,154.965836 104.796524,154.011658 104.861305,153.057541 
	C104.621750,153.055832 104.382202,153.054108 104.142647,153.052399 
	C104.081940,153.514526 104.021233,153.976639 103.989059,155.063736 
M103.159164,160.990021 
	C103.261627,161.413727 103.364090,161.837448 103.466553,162.261154 
	C103.592453,162.166718 103.835640,162.055435 103.824898,161.980606 
	C103.763130,161.550201 103.641228,161.128418 103.159164,160.990021 
M104.163918,249.750641 
	C104.266655,250.009415 104.369392,250.268173 104.472122,250.526932 
	C104.595047,250.436569 104.833740,250.322220 104.820862,250.259979 
	C104.765190,249.991058 104.635864,249.737381 104.163918,249.750641 
M121.475494,301.469604 
	C121.590668,301.248230 121.730782,301.034607 121.803406,300.800049 
	C121.821434,300.741821 121.620972,300.615936 121.520927,300.521179 
	C121.405441,300.742401 121.289955,300.963654 121.475494,301.469604 
M119.803841,291.787567 
	C119.604805,291.855011 119.405762,291.922455 119.206726,291.989960 
	C119.407272,292.053802 119.607819,292.117645 119.803841,291.787567 
M335.313538,46.478939 
	C335.313538,46.478939 335.575958,46.610298 335.575958,46.610298 
	C335.575958,46.610298 335.523651,46.321793 335.313538,46.478939 
M149.402084,62.485394 
	C149.402084,62.485394 149.534363,62.404209 149.402084,62.485394 
z"/>
<path fill="#D6CAC1" opacity="1.000000" stroke="none" 
	d="
M219.029007,32.641663 
	C228.581284,32.033211 238.128098,31.306480 247.688065,30.863960 
	C252.814438,30.626669 257.963440,30.878164 263.645935,31.165413 
	C264.452332,31.323929 264.715057,31.226122 264.977753,31.128315 
	C277.688354,32.830627 290.398956,34.532940 303.644775,36.528076 
	C304.179962,36.820892 304.601013,36.917053 304.601013,36.917053 
	C304.601013,36.917053 305.018738,36.807304 305.018738,36.807304 
	C325.670959,43.663971 345.076538,52.904354 361.481781,67.483055 
	C375.912048,80.306686 387.876312,95.040314 394.983521,113.968567 
	C395.412628,114.832596 395.680237,115.088478 395.947815,115.344360 
	C404.246857,144.794174 406.545532,174.925613 403.895599,205.195328 
	C402.338806,222.978271 398.245972,240.566956 394.821167,258.150970 
	C391.268860,276.389404 387.672516,294.649109 383.143890,312.660278 
	C377.032288,336.967590 365.071533,358.359558 349.656464,378.172516 
	C333.807800,398.542847 311.848816,407.063965 288.146332,412.997894 
	C260.716614,419.864899 233.872406,417.626068 207.167496,408.709930 
	C192.463394,403.800537 178.097397,398.220947 167.740662,386.516144 
	C158.553040,376.132721 150.439987,364.656769 142.922989,352.974365 
	C134.430161,339.775360 129.617905,324.832275 125.984360,309.598846 
	C122.805916,296.273346 119.871689,282.889587 116.378067,269.503235 
	C115.926552,269.474854 116.014069,269.420715 116.014069,269.420715 
	C116.024727,267.980042 116.035385,266.539398 116.006683,264.525452 
	C115.824738,263.269653 115.682152,262.587158 115.539574,261.904663 
	C114.319550,255.757721 113.099525,249.610779 111.677223,242.724564 
	C111.330887,241.484268 111.186844,240.983261 111.035034,240.252075 
	C110.705788,239.521713 110.384300,239.021484 110.142517,238.032776 
	C109.466820,236.511810 108.711411,235.479309 108.032898,234.305206 
	C108.171082,233.943695 108.144493,233.735001 108.512604,233.543839 
	C108.597733,230.372879 108.200279,227.195602 107.863426,223.736969 
	C107.704712,222.949371 107.485405,222.443146 107.266098,221.936905 
	C103.381104,191.518555 104.619209,161.197739 110.135941,131.139587 
	C111.843735,121.834564 115.969643,112.973343 119.325737,103.398972 
	C120.329628,101.581718 120.996223,100.274414 121.662811,98.967110 
	C133.098648,81.167931 147.187836,65.856415 165.263611,54.735649 
	C181.815231,44.552597 199.449387,36.679466 218.915512,32.938354 
	C219.031555,32.585098 219.029007,32.641663 219.029007,32.641663 
z"/>
<path fill="#D3C8BE" opacity="1.000000" stroke="none" 
	d="
M223.450729,419.319580 
	C222.585861,415.730072 224.516663,415.663330 226.758026,416.225342 
	C239.819733,419.500275 253.096985,419.947296 266.414734,418.874756 
	C273.145447,418.332672 279.810822,416.979645 287.864105,415.793121 
	C285.565887,420.298706 283.803619,424.248444 281.610504,427.942352 
	C277.894897,434.200592 273.710114,440.183990 270.083862,446.490692 
	C265.585175,454.314667 259.329163,457.816925 250.601410,455.732269 
	C247.491699,454.989532 243.968262,452.792175 242.200943,450.193054 
	C236.065125,441.169495 230.609940,431.682617 224.920471,422.356934 
	C224.405396,421.512695 224.067093,420.560608 223.450729,419.319580 
z"/>
<path fill="#CFC6BD" opacity="1.000000" stroke="none" 
	d="
M406.920349,237.706833 
	C405.052704,244.454407 403.516571,250.909134 398.044220,256.563873 
	C400.188568,245.264984 402.492859,234.955811 404.021637,224.532898 
	C405.440552,214.858948 406.318481,205.081207 406.919678,195.317474 
	C407.808624,180.879745 408.189209,166.411331 408.909363,151.962112 
	C409.074280,148.652969 410.198090,145.478561 414.139282,145.190598 
	C418.119019,144.899841 422.212158,148.980438 421.955048,153.264740 
	C421.709076,157.363968 421.179138,161.643463 419.719666,165.438187 
	C413.573364,181.418686 411.661926,198.262024 409.155396,214.975861 
	C408.048737,222.355118 407.686005,229.845947 406.920349,237.706833 
z"/>
<path fill="#D1C8BF" opacity="1.000000" stroke="none" 
	d="
M87.703140,160.889725 
	C87.899742,160.083679 88.355499,159.243103 88.253372,158.476883 
	C87.055397,149.488937 88.612701,147.058365 98.137856,144.348221 
	C99.142410,148.685776 100.719093,152.910507 101.008675,157.221680 
	C101.929153,170.925232 102.372803,184.660858 102.995255,198.384338 
	C103.340401,205.993866 103.674637,213.603897 103.671616,221.581635 
	C102.807564,221.661301 102.285683,221.373047 101.763802,221.084778 
	C97.825706,217.125992 100.144333,211.914169 99.112022,207.351471 
	C97.356178,199.590912 96.362167,191.657959 94.977715,183.099213 
	C94.747543,182.028854 94.587692,181.656738 94.427834,181.284622 
	C94.156265,180.394989 93.884697,179.505341 93.107330,178.686646 
	C92.601532,178.757568 92.568108,178.627151 92.568108,178.627151 
	C92.568108,178.627151 92.867592,178.256271 92.757462,178.015259 
	C92.647324,177.774246 92.794037,177.721878 92.794037,177.721878 
	C91.376900,172.201797 89.959770,166.681717 88.081535,161.106689 
	C87.620430,161.051727 87.703140,160.889725 87.703140,160.889725 
z"/>
<path fill="#CCC4BB" opacity="1.000000" stroke="none" 
	d="
M110.062805,238.521255 
	C110.384300,239.021484 110.705788,239.521713 110.697433,239.974304 
	C110.036987,240.985565 109.706390,242.044434 109.375793,243.103317 
	C110.069786,246.946915 110.763779,250.790512 111.457764,254.634109 
	C105.984352,248.931824 103.392418,242.159103 102.506866,233.954620 
	C102.236679,232.860428 102.115280,232.430145 101.993881,231.999878 
	C101.991219,229.962189 101.988556,227.924484 102.344864,225.315582 
	C103.750710,224.512329 104.797585,224.280273 105.844772,224.462524 
	C106.573402,227.763733 107.301712,230.650620 108.030022,233.537506 
	C108.144493,233.735001 108.171082,233.943695 107.963303,234.794189 
	C108.565475,236.456940 109.314148,237.489090 110.062805,238.521255 
z"/>
<path fill="#FAFAFA" opacity="1.000000" stroke="none" 
	d="
M258.952362,27.005238 
	C262.400665,26.996017 265.358398,26.996017 268.316101,26.996017 
	C268.315369,27.234333 268.314636,27.472649 268.313904,27.710964 
	C259.693787,27.710964 251.073654,27.710964 242.453537,27.710964 
	C242.444656,27.478794 242.435776,27.246626 242.426895,27.014456 
	C247.771851,27.014456 253.116806,27.014456 258.952362,27.005238 
z"/>
<path fill="#14110F" opacity="1.000000" stroke="none" 
	d="
M105.844452,224.048218 
	C104.797585,224.280273 103.750710,224.512329 102.375694,224.879944 
	C101.784264,223.846512 101.520981,222.677521 101.510750,221.296661 
	C102.285683,221.373047 102.807564,221.661301 103.630249,221.962769 
	C104.765007,221.975784 105.598976,221.975571 106.849518,221.956131 
	C107.485405,222.443146 107.704712,222.949371 107.536911,223.732925 
	C106.714684,224.022903 106.279572,224.035553 105.844452,224.048218 
z"/>
<path fill="#12100E" opacity="1.000000" stroke="none" 
	d="
M121.294037,98.969437 
	C120.996223,100.274414 120.329628,101.581718 119.388031,103.050995 
	C118.100052,101.108284 116.842842,98.899246 121.294037,98.969437 
z"/>
<path fill="#14110F" opacity="1.000000" stroke="none" 
	d="
M115.189896,261.907349 
	C115.682152,262.587158 115.824738,263.269653 115.901108,264.152710 
	C114.544777,263.832306 113.254654,263.311371 111.964531,262.790436 
	C112.072044,262.447266 112.179565,262.104095 112.287079,261.760956 
	C113.138123,261.810638 113.989166,261.860352 115.189896,261.907349 
z"/>
<path fill="#14110F" opacity="1.000000" stroke="none" 
	d="
M103.974792,154.751251 
	C104.021233,153.976639 104.081940,153.514526 104.142647,153.052399 
	C104.382202,153.054108 104.621750,153.055832 104.861305,153.057541 
	C104.796524,154.011658 104.732742,154.965836 104.653244,155.918732 
	C104.652405,155.928787 104.369110,155.960388 104.346527,155.916153 
	C104.206825,155.642502 104.104088,155.349991 103.974792,154.751251 
z"/>
<path fill="#14110F" opacity="1.000000" stroke="none" 
	d="
M109.922859,243.027100 
	C109.706390,242.044434 110.036987,240.985565 110.705200,240.204468 
	C111.186844,240.983261 111.330887,241.484268 111.516800,242.374512 
	C111.195747,242.826111 110.832832,242.888489 109.922859,243.027100 
z"/>
<path fill="#14110F" opacity="1.000000" stroke="none" 
	d="
M101.686172,232.047302 
	C102.115280,232.430145 102.236679,232.860428 102.296722,233.625626 
	C101.665047,233.776703 101.094734,233.592834 100.524414,233.408981 
	C100.809097,232.970901 101.093781,232.532822 101.686172,232.047302 
z"/>
<path fill="#14110F" opacity="1.000000" stroke="none" 
	d="
M103.349442,160.846863 
	C103.641228,161.128418 103.763130,161.550201 103.824898,161.980606 
	C103.835640,162.055435 103.592453,162.166718 103.466553,162.261154 
	C103.364090,161.837448 103.261627,161.413727 103.349442,160.846863 
z"/>
<path fill="#14110F" opacity="1.000000" stroke="none" 
	d="
M94.062035,183.063110 
	C94.004181,183.847122 93.946327,184.631149 93.888474,185.415161 
	C93.643112,185.390060 93.397751,185.364960 93.152390,185.339874 
	C93.243202,184.661362 93.334015,183.982864 93.713638,183.153076 
	C94.002457,183.001816 94.062035,183.063110 94.062035,183.063110 
z"/>
<path fill="#12100E" opacity="1.000000" stroke="none" 
	d="
M305.009827,36.512844 
	C305.018738,36.807304 304.601013,36.917053 304.601013,36.917053 
	C304.601013,36.917053 304.179962,36.820892 304.028320,36.667191 
	C304.088989,36.003151 304.301300,35.492813 304.513641,34.982475 
	C304.676056,35.394444 304.838501,35.806416 305.009827,36.512844 
z"/>
<path fill="#14110F" opacity="1.000000" stroke="none" 
	d="
M87.426880,160.715073 
	C87.703140,160.889725 87.620430,161.051727 87.665672,161.083191 
	C87.318153,161.181274 86.925392,161.247910 86.532631,161.314545 
	C86.738632,161.056503 86.944626,160.798462 87.426880,160.715073 
z"/>
<path fill="#14110F" opacity="1.000000" stroke="none" 
	d="
M115.970413,269.452637 
	C115.985695,270.009247 115.957130,270.588013 115.928558,271.166809 
	C115.748627,271.141205 115.568695,271.115631 115.388756,271.090057 
	C115.466667,270.689850 115.544579,270.289673 115.818275,269.655090 
	C116.014069,269.420715 115.926552,269.474854 115.970413,269.452637 
z"/>
<path fill="#14110F" opacity="1.000000" stroke="none" 
	d="
M109.869522,259.159424 
	C109.683746,258.691742 109.497963,258.224030 109.312187,257.756348 
	C109.579231,257.949829 109.846275,258.143311 110.065277,258.668152 
	C110.017235,258.999512 109.869522,259.159424 109.869522,259.159424 
z"/>
<path fill="#14110F" opacity="1.000000" stroke="none" 
	d="
M104.348633,249.614410 
	C104.635864,249.737381 104.765190,249.991058 104.820862,250.259979 
	C104.833740,250.322220 104.595047,250.436569 104.472122,250.526947 
	C104.369392,250.268173 104.266655,250.009415 104.348633,249.614410 
z"/>
<path fill="#14110F" opacity="1.000000" stroke="none" 
	d="
M121.324982,301.327240 
	C121.289955,300.963654 121.405441,300.742401 121.520935,300.521179 
	C121.620972,300.615936 121.821434,300.741821 121.803406,300.800049 
	C121.730782,301.034607 121.590668,301.248230 121.324982,301.327240 
z"/>
<path fill="#14110F" opacity="1.000000" stroke="none" 
	d="
M119.806107,291.984528 
	C119.607819,292.117645 119.407272,292.053802 119.206726,291.989929 
	C119.405762,291.922455 119.604805,291.855011 119.806107,291.984528 
z"/>
<path fill="#14110F" opacity="1.000000" stroke="none" 
	d="
M92.459671,178.903030 
	C92.568108,178.627151 92.601532,178.757568 92.627792,178.743561 
	C92.651276,179.092392 92.648499,179.455261 92.645721,179.818115 
	C92.547562,179.605042 92.449394,179.391983 92.459671,178.903030 
z"/>
<path fill="#14110F" opacity="1.000000" stroke="none" 
	d="
M92.474915,177.597595 
	C92.794037,177.721878 92.647324,177.774246 92.659760,177.797867 
	C92.292511,177.976593 91.912827,178.131699 91.533142,178.286804 
	C91.740700,178.015656 91.948250,177.744492 92.474915,177.597595 
z"/>
<path fill="#E5DDD6" opacity="1.000000" stroke="none" 
	d="
M264.740417,31.067894 
	C264.715057,31.226122 264.452332,31.323929 264.106934,31.266151 
	C264.024261,31.110567 264.503082,31.007473 264.740417,31.067894 
z"/>
<path fill="#12100E" opacity="1.000000" stroke="none" 
	d="
M219.233978,32.495010 
	C219.029007,32.641663 219.031555,32.585098 219.004364,32.597534 
	C219.131104,32.522766 219.285034,32.435562 219.233978,32.495010 
z"/>
<path fill="#14110F" opacity="1.000000" stroke="none" 
	d="
M110.097015,258.925446 
	C110.269035,259.068909 110.361282,259.286469 110.453522,259.503998 
	C110.330147,259.476624 110.206779,259.449219 109.976471,259.290619 
	C109.869522,259.159424 110.017235,258.999512 110.097015,258.925446 
z"/>
<path fill="#14110F" opacity="1.000000" stroke="none" 
	d="
M94.283890,181.691391 
	C94.587692,181.656738 94.747543,182.028854 94.861572,182.710297 
	C94.815758,183.019608 94.437248,183.025497 94.249641,183.044312 
	C94.062035,183.063110 94.002457,183.001816 93.972290,182.970001 
	C94.008072,182.658157 94.074005,182.378159 94.283890,181.691391 
z"/>
<path fill="#12100E" opacity="1.000000" stroke="none" 
	d="
M335.418579,46.400368 
	C335.523651,46.321793 335.575958,46.610298 335.575958,46.610298 
	C335.575958,46.610298 335.313538,46.478939 335.418579,46.400368 
z"/>
<path fill="#12100E" opacity="1.000000" stroke="none" 
	d="
M149.468231,62.444801 
	C149.534363,62.404209 149.402084,62.485394 149.468231,62.444801 
z"/>
<path fill="#12100E" opacity="1.000000" stroke="none" 
	d="
M395.911560,115.074120 
	C395.680237,115.088478 395.412628,114.832596 395.155640,114.288849 
	C395.402588,114.268616 395.638947,114.536247 395.911560,115.074120 
z"/>
<path fill="#000000" opacity="1.000000" stroke="none" 
	d="
M105.844772,224.462524 
	C106.279572,224.035553 106.714684,224.022903 107.476318,224.014282 
	C108.200279,227.195602 108.597733,230.372879 108.512604,233.543839 
	C107.301712,230.650620 106.573402,227.763733 105.844772,224.462524 
z"/>
<path fill="#000000" opacity="1.000000" stroke="none" 
	d="
M110.142517,238.032776 
	C109.314148,237.489090 108.565475,236.456940 107.886398,234.935791 
	C108.711411,235.479309 109.466820,236.511810 110.142517,238.032776 
z"/>
</svg>